<svg version="1.1" id="Layer_1" xmlns="http://www.w3.org/2000/svg" xmlns:xlink="http://www.w3.org/1999/xlink" x="0px" y="0px"
	 viewBox="0 0 24 24" style="enable-background:new 0 0 24 24;" xml:space="preserve">
	<path class="st0" style="fill-rule:evenodd;clip-rule:evenodd;fill:#515151;" d="M3.5,19.9h3.4V8.6H3.5V19.9z M16.7,8.2c-1.6,0-3.1,0.6-4.2,1.9V8.6H9.2v11.3h3.4v-6.1c0-1.3,1.2-2.6,2.7-2.6
		c1.5,0,1.9,1.3,1.9,2.5v6.2h3.4v-6.4C20.5,9,18.4,8.2,16.7,8.2z M5.2,7.5c0.9,0,1.7-0.8,1.7-1.7S6.1,4.1,5.2,4.1S3.5,4.8,3.5,5.8
		S4.3,7.5,5.2,7.5z"/>
</svg>
