<svg version="1.1" xmlns="http://www.w3.org/2000/svg" xmlns:xlink="http://www.w3.org/1999/xlink" x="0px" y="0px"
	 viewBox="0 0 24 24" style="enable-background:new 0 0 24 24;" xml:space="preserve">
	<path d="M20.7,6.5l-8.3,6.6c-0.2,0.2-0.5,0.2-0.7,0.2c-0.2,0-0.5-0.1-0.7-0.2l-8-6.4C3,6.9,3,7.1,3,7.3v9.4c0,0.8,0.6,1.4,1.4,1.4
		h15.1c0.8,0,1.4-0.6,1.4-1.4V7.3C21,7,20.9,6.7,20.7,6.5z"/>
	<path d="M12,12.5L20.1,6c-0.2-0.1-0.4-0.2-0.6-0.2H4.4C4.1,5.9,3.8,6,3.5,6.2l8,6.4C11.6,12.7,11.8,12.7,12,12.5z"/>
</svg>
