<svg version="1.1" xmlns="http://www.w3.org/2000/svg" xmlns:xlink="http://www.w3.org/1999/xlink" x="0px" y="0px" viewBox="0 0 24 24" style="enable-background:new 0 0 24 24;" xml:space="preserve">
<path style="fill:#515151;" class="st0" d="M22,6c-0.7,0.3-1.5,0.5-2.4,0.6c0.8-0.5,1.5-1.3,1.8-2.2c-0.8,0.5-1.7,0.8-2.6,1c-0.7-0.8-1.8-1.3-3-1.3
	c-2.3,0-4.1,1.8-4.1,4c0,0.3,0,0.6,0.1,0.9C8.4,8.9,5.4,7.3,3.4,4.9C3,5.5,2.8,6.1,2.8,6.9c0,1.4,0.7,2.6,1.8,3.3
	C4,10.1,3.4,10,2.8,9.7c0,0,0,0,0,0.1c0,1.9,1.4,3.5,3.3,3.9c-0.3,0.1-0.7,0.1-1.1,0.1c-0.3,0-0.5,0-0.8-0.1
	c0.5,1.6,2,2.7,3.8,2.8c-1.4,1.1-3.2,1.7-5.1,1.7c-0.3,0-0.7,0-1-0.1c1.8,1.1,4,1.8,6.3,1.8c7.5,0,11.7-6,11.7-11.3
	c0-0.2,0-0.3,0-0.5C20.8,7.5,21.4,6.8,22,6z"/>
</svg>
