<svg version="1.1" id="Layer_1" xmlns="http://www.w3.org/2000/svg" xmlns:xlink="http://www.w3.org/1999/xlink" x="0px" y="0px"
	 viewBox="0 0 24 24" style="enable-background:new 0 0 24 24;" xml:space="preserve">
	<path class="st0" style="fill:#FF0000;" d="M20.6,7.7c-0.2-0.8-0.8-1.4-1.6-1.6c-1.4-0.4-7-0.4-7-0.4s-5.6,0-7,0.4C4.1,6.3,3.5,6.9,3.3,7.7
		C3,9.1,3,12,3,12s0,2.9,0.4,4.3c0.2,0.8,0.8,1.4,1.6,1.6c1.4,0.4,7,0.4,7,0.4s5.6,0,7-0.4c0.8-0.2,1.4-0.8,1.6-1.6
		C21,14.9,21,12,21,12S21,9.1,20.6,7.7z"/>
	<polygon class="st1" style="fill:#FFFFFF;" points="10.1,14.7 14.8,12 10.1,9.3 	"/>
</svg>
